<svg xmlns="http://www.w3.org/2000/svg" viewBox='0 0 48 48'>
<path d="M23.500,45.000 C11.073,45.000 1.000,34.926 1.000,22.500 C1.000,10.074 11.073,-0.000 23.500,-0.000 C35.926,-0.000 46.000,10.074 46.000,22.500 C46.000,34.926 35.926,45.000 23.500,45.000 ZM24.044,10.170 C18.962,10.170 20.120,16.199 19.951,18.397 C19.951,18.414 16.844,18.397 16.844,18.397 L16.844,22.488 L19.942,22.488 L19.942,36.884 L25.089,36.884 L25.078,22.488 L28.526,22.488 L29.202,18.375 L25.089,18.420 C25.089,15.500 24.863,14.312 26.570,14.312 C26.723,14.312 29.219,14.307 29.219,14.307 L29.224,10.170 L24.044,10.170 Z"/>
</svg>
