<svg aria-hidden="true" style="position: absolute; width: 0; height: 0; overflow: hidden;" version="1.1" xmlns="http://www.w3.org/2000/svg" xmlns:xlink="http://www.w3.org/1999/xlink">
<defs>
<symbol id="icon-behance" viewBox="0 0 32 32">
<title>behance</title>
<path d="M15.366 28.584c-7.751 0-14.034-6.292-14.034-14.053s6.283-14.054 14.034-14.054c7.75 0 14.034 6.292 14.034 14.054s-6.284 14.053-14.034 14.053zM15.514 12.106c0-3.175-3.451-2.92-3.451-2.92l-5.118 0.002 0.006 11.267 4.775-0.032c0 0 4.109 0.316 4.145-3.373 0-2.149-1.733-2.664-1.733-2.664s1.375-0.498 1.375-2.279zM23.136 9.798h-4.381v1.257h4.381v-1.257zM20.895 11.726c-4.194 0-3.987 4.4-3.987 4.4s-0.234 4.333 4.070 4.333c3.313 0 3.794-2.736 3.794-2.736h-2.131c0 0-0.344 0.965-1.608 0.951-2.076 0-2.007-2.011-2.007-2.011l5.842-0.028c0 0 0.605-4.91-3.973-4.91zM20.881 13.525c1.8 0 1.842 1.707 1.842 1.707l-3.657 0.027c0 0 0.137-1.734 1.815-1.734zM11.632 18.472l-2.383-0.009-0.009-3.002c0 0 1.449 0.009 2.424 0.009-0.004 0 1.838-0.129 1.838 1.395 0 1.826-1.87 1.606-1.87 1.606zM11.651 13.621l-2.405 0.014v-2.491l2.078 0.010c0 0 1.95-0.259 1.95 1.201s-1.623 1.266-1.623 1.266z"></path>
</symbol>
<symbol id="icon-dribble" viewBox="0 0 32 32">
<title>dribble</title>
<path d="M15.665 29.185c-7.979 0-14.447-6.478-14.447-14.468s6.468-14.468 14.447-14.468c7.978 0 14.447 6.477 14.447 14.468s-6.469 14.468-14.447 14.468zM15.573 3.512c-6.212 0-11.248 5.053-11.248 11.288s5.036 11.287 11.248 11.287c6.213 0 11.249-5.053 11.249-11.287s-5.036-11.288-11.249-11.288zM18.263 14.315c-0.256-0.645-0.521-1.276-0.801-1.883 3.367-1.299 5.298-3.53 5.298-3.53s1.905 2.053 2.076 5.398c0-0.014-3.69-0.536-6.573 0.016zM13.223 5.795c0 0 4.514-1.441 8.413 1.958-2.104 2.139-4.91 3.189-4.91 3.189-1.242-2.801-3.503-5.146-3.503-5.146zM6.499 12.839c0 0 0.673-4.169 4.893-6.35 2.306 2.78 3.502 5.1 3.502 5.1s-3.442 1.121-8.395 1.25zM16.415 14.724c0 0-4.392 0.802-7.906 6.112-2.516-2.92-2.201-6.391-2.201-6.408 6.332-0.2 9.355-1.363 9.355-1.363l0.752 1.659zM17.055 16.347c1.047 2.427 1.848 7.141 1.848 7.141s-4.551 2.059-9.026-1.343c0.008 0 2.54-4.501 7.178-5.798zM24.782 15.983c-0.606 4.657-4.107 6.596-4.107 6.596-0.585-3.416-1.802-6.637-1.802-6.637s2.803-0.464 5.91 0.041z"></path>
</symbol>
<symbol id="icon-facebook" viewBox="0 0 32 32">
<title>facebook</title>
<path d="M15.667 30c-8.285 0-15-6.716-15-15s6.715-15 15-15c8.284 0 15 6.716 15 15s-6.716 15-15 15zM16.029 6.78c-3.388 0-2.616 4.019-2.729 5.485 0 0.011-2.071 0-2.071 0v2.727h2.065v9.597h3.431l-0.007-9.597h2.299l0.451-2.742-2.742 0.030c0-1.947-0.151-2.739 0.987-2.739 0.102 0 1.766-0.003 1.766-0.003l0.003-2.758h-3.453z"></path>
</symbol>
<symbol id="icon-google-plus" viewBox="0 0 32 32">
<title>google-plus</title>
<path d="M15.984 30.008c-8.115 0-14.694-6.579-14.694-14.694s6.579-14.694 14.694-14.694 14.694 6.578 14.694 14.694c0 8.115-6.579 14.694-14.694 14.694zM13.534 6.838c-2.248 0-3.277 0.599-3.96 1.183-0.596 0.595-1.389 1.484-1.367 2.95 0 1.268 0.937 3.465 3.615 3.476 0.176-0.011 0.283-0.004 0.701-0.037-0.143 0.33-0.206 0.536-0.217 0.844 0 0.562 0.202 0.955 0.654 1.484-1.29 0.133-2.941 0.202-4.189 1.029-2.021 1.235-1.808 2.715-1.808 2.693 0.155 3.252 4.861 3.185 4.846 3.163 3.777-0.037 5.684-2.115 5.684-4.195 0-1.12-0.447-2.154-1.717-3.071-0.557-0.507-1.372-0.805-1.369-1.543 0-1.345 2.476-1.635 2.476-4.237-0.087-1.985-1.426-2.841-1.597-2.951 0.036 0 1.372 0.001 1.372 0.001l1.418-0.79c0 0-4.522 0-4.545 0zM24.658 8.802h-2.072v-2.072h-1.382v2.072h-2.072v1.381h2.072v2.072h1.382v-2.072h2.072v-1.381zM12.694 13.851c-1.885-0.104-2.503-2.899-2.503-2.899s-0.733-3.301 1.91-3.33c2.063-0.223 2.77 2.95 2.77 2.95s0.748 3.279-2.177 3.279zM16.135 20.325c-0.055 0.088 0.253 2.245-3.274 2.377-3.791-0.066-3.872-2.469-3.872-2.689-0.016-2.505 3.36-2.629 4.229-2.656 0.75 0.095 2.891 1.339 2.917 2.969z"></path>
</symbol>
<symbol id="icon-ln" viewBox="0 0 32 32">
<title>ln</title>
<path d="M15.37 29.434c-8.115 0-14.694-6.579-14.694-14.694s6.579-14.694 14.694-14.694c8.116 0 14.694 6.579 14.694 14.694s-6.578 14.694-14.694 14.694zM9.060 7.655c-0.946 0-1.713 0.767-1.713 1.713s0.767 1.714 1.713 1.714c0.946 0 1.713-0.767 1.713-1.714s-0.767-1.713-1.713-1.713zM10.875 12.163h-3.325v10.035h3.325v-10.035zM19.418 11.918c-2.040 0.021-2.657 1.193-2.973 1.672v-1.489h-3.367v10.055h3.365v-5.343c0 0-0.241-2.060 1.815-2.060 1.524 0 1.55 1.646 1.535 1.869-0.001-0.105-0.003-0.118-0.005 0.008 0 0.029 0.003 0.023 0.005-0.008 0.007 0.685-0.005 5.556-0.005 5.556l3.304 0.010c0 0 0.041-5.241 0.041-5.262 0-0.948 0.017-5.007-3.715-5.007z"></path>
</symbol>
<symbol id="icon-plus" viewBox="0 0 32 32">
<title>plus</title>
<path d="M16.005 31.994c-8.836 0-16-7.163-16-16s7.164-16 16-16c8.837 0 16 7.163 16 16s-7.163 16-16 16zM23.48 14.15l-5.68 0.038v-5.658l-4.265-0.017v5.681h-5.697v4.303h5.697v5.639h4.245l-0.028-5.639h5.745l-0.017-4.347z"></path>
</symbol>
<symbol id="icon-tumblr" viewBox="0 0 32 32">
<title>tumblr</title>
<path d="M15.666 30c-8.284 0-15-6.716-15-15.001s6.716-15 15-15 15 6.716 15 15c0 8.285-6.716 15.001-15 15.001zM20.663 20.091c-2.585 1.191-4.004 0.784-4.004-1.251 0-1.060 0.003-4.178 0.003-4.178h3.339v-2.674l-3.342 0.001v-4.017c0 0-1.527-0.001-2.266-0.001-0.124 1.852-0.747 2.9-3.049 4.031 0 0.753-0.002 2.643-0.002 2.643h1.993c0 0 0 5.123 0 6.013 0 1.761 1.605 2.444 2.746 2.611 1.412 0.206 3.17-0.051 4.583-0.515 0-0.831 0-1.583 0-2.663z"></path>
</symbol>
<symbol id="icon-twiter" viewBox="0 0 32 32">
<title>twiter</title>
<path d="M15.984 30.024c-8.115 0-14.694-6.579-14.694-14.694s6.579-14.694 14.694-14.694 14.694 6.578 14.694 14.694c0 8.115-6.579 14.694-14.694 14.694zM23.796 13.878c-1.135-3.952-3.862-3.952-3.862-3.952s1.158-0.656 1.124-1.057c-0.356-0.256-1.070 0.256-1.13 0.256 0.18-0.127 0.073-0.487-0.161-0.623-0.345 0.033-0.645 0.668-0.645 0.668s-0.169-0.312-0.323-0.312c-1.825 0.501-3.111 4.714-3.105 4.72-5.96-4.024-6.356-3.25-6.356-3.239-0.468 1.046 1.347 2.371 1.347 2.371l-0.519 0.016c0 0-0.762-0.025-0.596 0.52 0.17 0.695 1.074 1.416 1.081 1.424 0.445 0.212 1.002 0.011 1.002 0.011s-0.59 0.308-0.963 0.541c-0.615 0.397-0.173 0.75-0.106 0.816 0.801 0.857 2.060 0.801 2.060 0.801s-0.585 0.701-0.59 0.968c0 0.434 0.389 0.701 0.423 0.735 0.348 0.238 0.864 0.267 0.869 0.267-3.225 3.417-7.112-0.020-7.112-0.033 0.434 2.504 4.118 4.919 10.596 3.984 5.253-0.835 6.934-6.589 6.934-6.589s2.17 0.122 2.415-1.169c-0.679 0.123-1.658-0.078-1.658-0.078s1.669-0.724 1.748-1.591c-0.98 0.756-2.438 0.545-2.471 0.545z"></path>
</symbol>
</defs>
</svg>
