<svg xmlns="http://www.w3.org/2000/svg" vievBox='0 0 49 49'>
<path d="M24.475,45.975 C12.049,45.975 1.975,35.901 1.975,23.475 C1.975,11.048 12.049,0.975 24.475,0.975 C36.901,0.975 46.975,11.048 46.975,23.475 C46.975,35.901 36.901,45.975 24.475,45.975 ZM36.437,21.250 C34.699,15.199 30.523,15.199 30.523,15.199 C30.523,15.199 32.296,14.194 32.244,13.580 C31.699,13.188 30.605,13.972 30.513,13.972 C30.789,13.778 30.625,13.226 30.267,13.018 C29.739,13.069 29.279,14.041 29.279,14.041 C29.279,14.041 29.020,13.563 28.785,13.563 C25.990,14.330 24.021,20.781 24.030,20.790 C14.903,14.629 14.298,15.813 14.298,15.830 C13.582,17.432 16.360,19.460 16.360,19.460 L15.566,19.484 C15.566,19.484 14.399,19.445 14.654,20.280 C14.914,21.344 16.298,22.448 16.309,22.460 C16.991,22.784 17.843,22.477 17.843,22.477 C17.843,22.477 16.940,22.948 16.368,23.306 C15.426,23.914 16.103,24.454 16.205,24.556 C17.432,25.868 19.360,25.783 19.360,25.783 C19.360,25.783 18.464,26.857 18.457,27.266 C18.457,27.931 19.053,28.340 19.104,28.391 C19.637,28.756 20.427,28.800 20.434,28.800 C15.495,34.032 9.543,28.769 9.543,28.749 C10.208,32.583 15.849,36.282 25.768,34.850 C33.812,33.572 36.386,24.761 36.386,24.761 C36.386,24.761 39.709,24.948 40.084,22.971 C39.045,23.159 37.545,22.852 37.545,22.852 C37.545,22.852 40.101,21.744 40.221,20.415 C38.721,21.573 36.488,21.250 36.437,21.250 Z"/>
</svg>